<?xml version="1.0" encoding="UTF-8" standalone="no"?>
<svg xmlns="http://www.w3.org/2000/svg" viewBox="0 0 100 100">
  <!-- Cavalry unit with horse and lance -->
  <g id="cavalry" fill="none" stroke="#000" stroke-width="2">
    <!-- Horse body -->
    <path d="M20 50 Q30 40 50 40 Q70 40 80 50 Q80 60 70 70 Q50 75 30 70 Q20 60 20 50" fill="#8b4513"/>
    <!-- Horse legs -->
    <path d="M30 70 L25 90"/>
    <path d="M40 70 L35 90"/>
    <path d="M60 70 L65 90"/>
    <path d="M70 70 L75 90"/>
    <!-- Horse head -->
    <path d="M20 50 Q15 40 20 30 Q25 25 30 30" fill="#8b4513"/>
    <!-- Rider body -->
    <path d="M50 20 L50 40"/>
    <!-- Rider head -->
    <circle cx="50" cy="15" r="6" fill="#ffd700"/>
    <!-- Rider arms -->
    <path d="M50 25 L40 35"/>
    <path d="M50 25 L80 15"/>
    <!-- Lance -->
    <path d="M80 15 L90 5" stroke="#silver" stroke-width="3"/>
  </g>
</svg>
